<?xml version="1.0" ?><svg viewBox="0 0 24 24" xmlns="http://www.w3.org/2000/svg"><defs><style>.cls-1{fill:#eae2f9;}.cls-2{fill:#ffeabb;}.cls-3{fill:#9293a5;}.cls-4{fill:#c0c3ee;}.cls-5{fill:#6f7188;}.cls-6{fill:#f7bf75;}</style></defs><g id="Transfer"><path class="cls-1" d="M2.77,5.72H8.68a.91.91,0,0,1,.91.91V17.37a.91.91,0,0,1-.91.91H2.77a.91.91,0,0,1-.91-.91V6.63a.91.91,0,0,1,.91-.91"/><path class="cls-2" d="M21.86,13.35A3.76,3.76,0,1,1,18.11,9.6a3.75,3.75,0,0,1,3.75,3.75"/><path class="cls-3" d="M1.86,16v1.34a.91.91,0,0,0,.91.91H8.68a.91.91,0,0,0,.91-.91V16Z"/><path class="cls-4" d="M7,5.72a.91.91,0,0,1,.91.91V17.37a.91.91,0,0,1-.91.91H8.68a.91.91,0,0,0,.91-.91V6.63a.91.91,0,0,0-.91-.91Z"/><path class="cls-5" d="M7.88,16v1.34a.91.91,0,0,1-.91.91H8.68a.91.91,0,0,0,.91-.91V16Z"/><path class="cls-6" d="M20.42,13.35A2.32,2.32,0,1,1,18.11,11a2.32,2.32,0,0,1,2.31,2.31"/><path d="M18.11,9.1a4.24,4.24,0,0,0-4.21,3.75H13a.5.5,0,0,0,0-.63.49.49,0,0,0-.7,0l-.9.8a.48.48,0,0,0-.17.37.5.5,0,0,0,.17.38l.9.8a.5.5,0,0,0,.33.12.49.49,0,0,0,.37-.16.51.51,0,0,0,0-.64h.9A4.25,4.25,0,1,0,18.11,9.1Zm0,7.51a3.26,3.26,0,1,1,3.25-3.26A3.26,3.26,0,0,1,18.11,16.61Z"/><path d="M18.11,12.82a.19.19,0,0,1-.19-.19c0-.18.21-.29.37-.08a.5.5,0,1,0,.92-.39,1.05,1.05,0,0,0-.25-.37,1.21,1.21,0,0,0-.35-.24v-.09a.5.5,0,0,0-.5-.5.51.51,0,0,0-.5.5v.09a1.2,1.2,0,0,0-.69,1.08,1.19,1.19,0,0,0,1.19,1.19.2.2,0,0,1,.2.2c0,.18-.28.19-.34.13a.15.15,0,0,1,0-.06.49.49,0,0,0-.65-.26.5.5,0,0,0-.27.65,1,1,0,0,0,.26.38,1.08,1.08,0,0,0,.34.23v.1a.51.51,0,0,0,.5.5.5.5,0,0,0,.5-.5v-.1a1.18,1.18,0,0,0,.7-1.07A1.2,1.2,0,0,0,18.11,12.82Z"/><path d="M11.66,11.12l.91-.8a.51.51,0,0,0,.16-.37.53.53,0,0,0-.16-.38l-.91-.8a.5.5,0,0,0-.7,0,.51.51,0,0,0,0,.64h-.85V6.63A1.41,1.41,0,0,0,8.68,5.22H2.77A1.41,1.41,0,0,0,1.36,6.63V17.37a1.42,1.42,0,0,0,1.41,1.41H8.68a1.41,1.41,0,0,0,1.41-1.41V10.45h.85a.5.5,0,0,0,.39.8A.51.51,0,0,0,11.66,11.12ZM9.09,17.37a.41.41,0,0,1-.41.41H2.77a.42.42,0,0,1-.41-.41v-.84H9.09Zm0-1.84H2.36V6.63a.42.42,0,0,1,.41-.41H8.68a.41.41,0,0,1,.41.41Z"/></g></svg>